<svg xmlns="http://www.w3.org/2000/svg" width="128.0mm" height="88.0mm" viewBox="-0.40 -0.40 12.80 8.80">
<rect x="0.00" y="0.00" width="12.00" height="8.00" fill="white" stroke="#111111" stroke-width="0.12"/>
<polygon points="0.00,3.00 12.00,3.00 12.00,5.30 0.00,5.30" fill="#eef6ff" stroke="#444444" stroke-width="0.05"/>
<text x="6.00" y="4.15" font-size="0.45" text-anchor="middle" dominant-baseline="middle" fill="#111111">living_room | 27.6m2</text>
<polygon points="7.20,0.00 12.00,0.00 12.00,3.00 7.20,3.00" fill="#eef6ff" stroke="#444444" stroke-width="0.05"/>
<text x="9.60" y="1.50" font-size="0.45" text-anchor="middle" dominant-baseline="middle" fill="#111111">kitchen | 14.4m2</text>
<polygon points="0.00,0.00 7.20,0.00 7.20,3.00 0.00,3.00" fill="#eef6ff" stroke="#444444" stroke-width="0.05"/>
<text x="3.60" y="1.50" font-size="0.45" text-anchor="middle" dominant-baseline="middle" fill="#111111">bedroom_main | 21.6m2</text>
<polygon points="4.80,5.30 12.00,5.30 12.00,8.00 4.80,8.00" fill="#eef6ff" stroke="#444444" stroke-width="0.05"/>
<text x="8.40" y="6.65" font-size="0.45" text-anchor="middle" dominant-baseline="middle" fill="#111111">bedroom_2 | 19.4m2</text>
<polygon points="2.80,5.30 4.80,5.30 4.80,8.00 2.80,8.00" fill="#eef6ff" stroke="#444444" stroke-width="0.05"/>
<text x="3.80" y="6.65" font-size="0.45" text-anchor="middle" dominant-baseline="middle" fill="#111111">bathroom_wet | 5.4m2</text>
<polygon points="1.20,5.30 2.80,5.30 2.80,8.00 1.20,8.00" fill="#eef6ff" stroke="#444444" stroke-width="0.05"/>
<text x="2.00" y="6.65" font-size="0.45" text-anchor="middle" dominant-baseline="middle" fill="#111111">bathroom_dry | 4.3m2</text>
<polygon points="0.00,5.30 1.20,5.30 1.20,8.00 0.00,8.00" fill="#eef6ff" stroke="#444444" stroke-width="0.05"/>
<text x="0.60" y="6.65" font-size="0.45" text-anchor="middle" dominant-baseline="middle" fill="#111111">storage | 3.2m2</text>
<circle cx="1.20" cy="0.00" r="0.18" fill="#b00020"/>
</svg>